<svg width="80" height="74" viewBox="0 0 80 74" fill="none" xmlns="http://www.w3.org/2000/svg">
<path d="M2.1519 72.9525H77.8481C78.6033 72.9525 79.25 72.3849 79.25 71.6412V1.89449C79.25 1.15077 78.6033 0.58313 77.8481 0.58313H2.1519C1.39665 0.58313 0.75 1.15077 0.75 1.89449V71.6412C0.75 72.3849 1.39665 72.9525 2.1519 72.9525ZM76.4462 3.20585V70.3298H3.5538V3.20585H76.4462Z" fill="black" stroke="black" stroke-width="0.5"/>
<path d="M2.1519 15.3357H77.8481C78.6034 15.3357 79.25 14.768 79.25 14.0243C79.25 13.2806 78.6034 12.7129 77.8481 12.7129H2.1519C1.39664 12.7129 0.75 13.2806 0.75 14.0243C0.75 14.768 1.39664 15.3357 2.1519 15.3357Z" fill="black" stroke="black" stroke-width="0.5"/>
<path d="M14.7881 14.0243C14.7881 14.7681 15.4348 15.3357 16.19 15.3357C16.9453 15.3357 17.5919 14.7681 17.5919 14.0243V1.89449C17.5919 1.15076 16.9453 0.58313 16.19 0.58313C15.4348 0.58313 14.7881 1.15076 14.7881 1.89449V14.0243Z" fill="black" stroke="black" stroke-width="0.5"/>
<path d="M54.1014 37.2161H67.2659C68.0211 37.2161 68.6678 36.6484 68.6678 35.9047V23.7749C68.6678 23.0311 68.0211 22.4635 67.2659 22.4635H54.1014C53.3461 22.4635 52.6995 23.0311 52.6995 23.7749V35.9047C52.6995 36.6484 53.3461 37.2161 54.1014 37.2161ZM65.864 25.0862V34.5933H55.5033V25.0862H65.864Z" fill="black" stroke="black" stroke-width="0.5"/>
<path d="M13.1014 63.9368H26.2659C27.0211 63.9368 27.6678 63.3691 27.6678 62.6254V50.4955C27.6678 49.7517 27.0211 49.1841 26.2659 49.1841H13.1014C12.3461 49.1841 11.6995 49.7517 11.6995 50.4955V62.6254C11.6995 63.3691 12.3461 63.9368 13.1014 63.9368ZM24.864 51.8068V61.314H14.5033V51.8068H24.864Z" fill="black" stroke="black" stroke-width="0.5"/>
<path d="M44.9366 65.0447H51.5189C52.2741 65.0447 52.9208 64.477 52.9208 63.7333V56.1522C52.9208 55.4085 52.2741 54.8408 51.5189 54.8408H44.9366C44.1813 54.8408 43.5347 55.4085 43.5347 56.1522V63.7333C43.5347 64.477 44.1813 65.0447 44.9366 65.0447ZM50.117 57.4635V62.422H46.3385V57.4635H50.117Z" fill="black" stroke="black" stroke-width="0.5"/>
<path d="M51.5191 65.0448H58.1013C58.8566 65.0448 59.5032 64.4772 59.5032 63.7334V44.0224C59.5032 43.2787 58.8566 42.7111 58.1013 42.7111H51.5191C50.7638 42.7111 50.1172 43.2787 50.1172 44.0224V63.7334C50.1172 64.4772 50.7638 65.0448 51.5191 65.0448ZM56.6994 45.3338V62.4221H52.921V45.3338H56.6994Z" fill="black" stroke="black" stroke-width="0.5"/>
<path d="M58.1014 65.0448H64.6836C65.4389 65.0448 66.0855 64.4772 66.0855 63.7334V50.0874C66.0855 49.3436 65.4389 48.776 64.6836 48.776H58.1014C57.3461 48.776 56.6995 49.3436 56.6995 50.0874V63.7334C56.6995 64.4772 57.3461 65.0448 58.1014 65.0448ZM63.2817 51.3987V62.4221H59.5033V51.3987H63.2817Z" fill="black" stroke="black" stroke-width="0.5"/>
<path d="M64.6836 65.0448H71.2659C72.0211 65.0448 72.6678 64.4772 72.6678 63.7334V47.0548C72.6678 46.311 72.0211 45.7434 71.2659 45.7434H64.6836C63.9284 45.7434 63.2817 46.311 63.2817 47.0548V63.7334C63.2817 64.4772 63.9284 65.0448 64.6836 65.0448ZM69.864 48.3661V62.4221H66.0855V48.3661H69.864Z" fill="black" stroke="black" stroke-width="0.5"/>
<path d="M14.6709 25.6228H24.5444C25.2996 25.6228 25.9463 25.0551 25.9463 24.3114C25.9463 23.5677 25.2996 23 24.5444 23H14.6709C13.9157 23 13.269 23.5677 13.269 24.3114C13.269 25.0551 13.9157 25.6228 14.6709 25.6228Z" fill="black" stroke="black" stroke-width="0.5"/>
<path d="M35.3069 64.4323C35.3069 65.1226 35.9942 65.5845 36.7088 65.5845C37.4233 65.5845 38.1107 65.1226 38.1107 64.4323V24.4786C38.1107 23.7883 37.4233 23.3264 36.7088 23.3264C35.9942 23.3264 35.3069 23.7883 35.3069 24.4786V64.4323Z" fill="black" stroke="black" stroke-width="0.5"/>
<path d="M14.5064 33.2039H24.3798C25.135 33.2039 25.7817 32.6362 25.7817 31.8925C25.7817 31.1488 25.135 30.5812 24.3798 30.5812H14.5064C13.7511 30.5812 13.1045 31.1488 13.1045 31.8925C13.1045 32.6362 13.7511 33.2039 14.5064 33.2039Z" fill="black" stroke="black" stroke-width="0.5"/>
<path d="M14.6709 40.9368H24.5444C25.2996 40.9368 25.9463 40.3691 25.9463 39.6254C25.9463 38.8816 25.2996 38.314 24.5444 38.314H14.6709C13.9157 38.314 13.269 38.8816 13.269 39.6254C13.269 40.3691 13.9157 40.9368 14.6709 40.9368Z" fill="black" stroke="black" stroke-width="0.5"/>
</svg>
