<svg width="74" height="89" viewBox="0 0 74 89" fill="none" xmlns="http://www.w3.org/2000/svg">
<g clip-path="url(#clip0)">
<path d="M36.78 0.00997487C36.33 0.0699749 35.91 0.279975 35.59 0.599975L25.59 10.6C24.73 11.29 24.59 12.55 25.29 13.41C25.99 14.27 27.24 14.41 28.1 13.71C28.21 13.62 28.31 13.52 28.4 13.41L35 6.81997V16.01C35 23.82 28.85 30.17 22.12 36.57C18.76 39.77 15.3 42.93 12.62 46.38C9.94 49.83 8 53.67 8 58.01V62.01C7.98 63.11 8.87 64.02 9.97 64.04C11.07 64.06 11.98 63.17 12 62.07C12 62.05 12 62.03 12 62.01V58.01C12 54.88 13.43 51.92 15.81 48.85C18.19 45.78 21.48 42.7 24.87 39.47C31.65 33.03 39 25.86 39 16.01V6.81997L45.59 13.41C46.28 14.27 47.54 14.41 48.4 13.71C49.26 13.02 49.4 11.76 48.7 10.9C48.61 10.79 48.51 10.69 48.4 10.6L38.4 0.599975C37.98 0.169975 37.38 -0.0500251 36.78 0.00997487ZM64 14.01C58.5 14.01 54 18.51 54 24.01C54 29.51 58.5 34.01 64 34.01C69.5 34.01 74 29.51 74 24.01C74 18.51 69.5 14.01 64 14.01ZM2.78 14.98C1.68 15.09 0.88 16.07 0.98 17.16C1.03 17.64 1.24 18.08 1.59 18.41L7.18 24L1.59 29.6C0.73 30.29 0.59 31.55 1.29 32.41C1.99 33.27 3.24 33.41 4.1 32.71C4.21 32.62 4.31 32.52 4.4 32.41L10 26.82L15.59 32.41C16.28 33.27 17.54 33.41 18.4 32.71C19.26 32.02 19.4 30.76 18.7 29.9C18.61 29.79 18.51 29.69 18.4 29.6L12.81 24.01L18.4 18.42C19.19 17.65 19.22 16.39 18.45 15.59C18.06 15.19 17.52 14.97 16.97 14.98C16.45 15 15.95 15.22 15.59 15.6L10 21.2L4.41 15.6C4.04 15.2 3.52 14.98 2.97 14.98C2.91 14.98 2.84 14.98 2.78 14.98ZM64 18.01C67.34 18.01 70 20.67 70 24.01C70 27.35 67.34 30.01 64 30.01C60.66 30.01 58 27.35 58 24.01C58 20.67 60.66 18.01 64 18.01ZM37 41.01C31.5 41.01 27 45.51 27 51.01C27 56.51 31.5 61.01 37 61.01C42.5 61.01 47 56.51 47 51.01C47 45.51 42.5 41.01 37 41.01ZM37 45.01C40.34 45.01 43 47.67 43 51.01C43 54.35 40.34 57.01 37 57.01C33.66 57.01 31 54.35 31 51.01C31 47.67 33.66 45.01 37 45.01ZM10 68.01C4.5 68.01 0 72.51 0 78.01C0 83.51 4.5 88.01 10 88.01C15.5 88.01 20 83.51 20 78.01C20 72.51 15.5 68.01 10 68.01ZM56.78 68.98C55.68 69.09 54.88 70.07 54.98 71.16C55.03 71.64 55.24 72.08 55.59 72.41L61.18 78L55.59 83.59C54.73 84.28 54.59 85.54 55.29 86.4C55.99 87.26 57.24 87.4 58.1 86.7C58.21 86.61 58.31 86.51 58.4 86.4L64 80.82L69.59 86.41C70.28 87.27 71.54 87.41 72.4 86.71C73.26 86.01 73.4 84.76 72.7 83.9C72.61 83.79 72.51 83.69 72.4 83.6L66.81 78.01L72.4 72.42C73.19 71.65 73.22 70.39 72.45 69.59C72.06 69.19 71.52 68.97 70.97 68.98C70.45 69 69.95 69.22 69.59 69.6L64 75.2L58.41 69.61C58.04 69.21 57.52 68.99 56.97 68.99C56.91 68.98 56.84 68.98 56.78 68.98ZM10 72.01C13.34 72.01 16 74.67 16 78.01C16 81.35 13.34 84.01 10 84.01C6.66 84.01 4 81.35 4 78.01C4 74.67 6.66 72.01 10 72.01Z" fill="black"/>
</g>
<defs>
<clipPath id="clip0">
<rect width="74" height="88.01" fill="white"/>
</clipPath>
</defs>
</svg>
