<svg width="85" height="86" viewBox="0 0 85 86" fill="none" xmlns="http://www.w3.org/2000/svg">
<g clip-path="url(#clip0)">
<path d="M27.4765 64.0413L27.4773 64.0418C30.9731 66.31 35.0316 67.5214 39.1719 67.51C45.0096 67.5449 50.6157 65.1691 54.7301 60.9152C63.2308 52.1629 63.2078 37.9992 54.6728 29.2706C50.5811 25.0518 45.0093 22.6882 39.2065 22.6997C33.4034 22.6882 27.8314 25.052 23.7396 29.2711L23.739 29.2717C22.6164 30.4345 21.6201 31.7145 20.7615 33.088L20.7608 33.089C14.2782 43.5411 17.2875 57.3896 27.4765 64.0413ZM39.2169 26.3026L39.2186 26.3026C44.0851 26.2913 48.7542 28.2758 52.1856 31.817L52.1866 31.818C59.3622 39.1643 59.3628 51.0901 52.1875 58.4487C45.0605 65.6074 33.655 65.6072 26.5171 58.4471C19.2638 51.1686 19.1416 39.2428 26.2393 31.8163C29.682 28.2754 34.351 26.2913 39.2169 26.3026Z" fill="black" stroke="black" stroke-width="0.7"/>
<path d="M23.7361 55.2261L23.7309 55.2177L23.7252 55.2095C23.6682 55.1277 23.5864 55.0142 23.4969 54.9224C22.8068 54.2148 21.6894 54.2148 20.9993 54.9224L0.820845 75.6128C-0.744188 77.2175 -0.744188 79.8169 0.820845 81.4216L3.80983 84.4864C4.56342 85.2591 5.58982 85.6908 6.65461 85.6908C7.73127 85.6908 8.74621 85.2587 9.49939 84.4864L29.6779 63.796C29.7585 63.7133 29.8441 63.6119 29.9176 63.4914C30.4303 62.6532 30.1999 61.55 29.382 61.015L29.3806 61.0141C27.1013 59.5392 25.1754 57.5647 23.7361 55.2261ZM3.3184 78.1486L22.0143 58.9783C23.0861 60.3951 24.3285 61.668 25.7115 62.7662L7.00658 81.9457C6.80482 82.1352 6.5044 82.1352 6.30265 81.9457L3.3184 78.8858C3.12388 78.6863 3.12388 78.348 3.3184 78.1486Z" fill="black" stroke="black" stroke-width="0.7"/>
<path d="M65.6902 21.584H83.5903C84.0528 21.584 84.507 21.3983 84.8248 21.0593C85.5074 20.3564 85.5065 19.2279 84.8221 18.5262L66.9357 0.186055C66.6083 -0.162634 66.1551 -0.35 65.6902 -0.35C64.7104 -0.35 63.9303 0.462679 63.9303 1.44567V19.7883C63.9303 20.7713 64.7104 21.584 65.6902 21.584ZM67.4501 5.78702L79.3537 17.9927H67.4501V5.78702Z" fill="black" stroke="black" stroke-width="0.7"/>
<path d="M83.5903 86.35L83.5955 86.35C84.5683 86.3355 85.3502 85.5403 85.3502 84.5428V19.7883C85.3502 19.3121 85.1543 18.8552 84.8334 18.5262L66.947 0.186C66.6196 -0.162654 66.1663 -0.35 65.7015 -0.35H22.9646C21.9848 -0.35 21.2047 0.462679 21.2047 1.44567V24.0097V24.3597H21.5547H24.3745H24.7245V24.0097V3.24134H64.9674L81.8304 20.5321V82.7587H24.7245V76.0654V75.7154H24.3745H21.5547H21.2047V76.0654V84.5543C21.2047 85.5373 21.9848 86.35 22.9646 86.35L83.5903 86.35Z" fill="black" stroke="black" stroke-width="0.7"/>
<path d="M33.996 40.8604V40.5104H33.646H30.8262H30.4762V40.8604V52.6339V52.9839H30.8262H33.646H33.996V52.6339V40.8604Z" fill="black" stroke="black" stroke-width="0.7"/>
<path d="M40.391 44.226V43.876H40.041H37.2212H36.8712V44.226V52.634V52.984H37.2212H40.041H40.391V52.634V44.226Z" fill="black" stroke="black" stroke-width="0.7"/>
<path d="M47.3392 37.5065V37.1565H46.9892H44.1694H43.8194V37.5065V52.634V52.984H44.1694H46.9892H47.3392V52.634V37.5065Z" fill="black" stroke="black" stroke-width="0.7"/>
</g>
<defs>
<clipPath id="clip0">
<rect width="85" height="86" fill="white"/>
</clipPath>
</defs>
</svg>
