<svg width="88" height="91" viewBox="0 0 88 91" fill="none" xmlns="http://www.w3.org/2000/svg">
<g clip-path="url(#clip0)">
<mask id="path-1-outside-1" maskUnits="userSpaceOnUse" x="-0.992432" y="-1" width="90" height="93" fill="black">
<rect fill="white" x="-0.992432" y="-1" width="90" height="93"/>
<path d="M52.7317 91H35.2681C33.0513 91 31.2458 89.18 31.2458 86.9454V79.625C31.2458 79.261 30.5035 78.7049 29.2998 78.169L29.1092 78.078C26.8222 77.0467 24.5853 75.6918 22.529 74.074C22.0074 73.6594 21.2952 73.5482 20.894 73.7909L14.8555 77.2994C12.759 78.5229 10.3517 77.7241 9.27837 75.8637L0.551591 60.6161C0.00992873 59.6758 -0.130502 58.5838 0.15036 57.5423C0.431221 56.4908 1.09325 55.6212 2.02611 55.0752L2.96901 56.3796L2.16655 54.9943L2.57781 54.7517L3.49061 56.0661L2.68815 54.7011L7.46279 51.9206C8.91726 51.0712 8.91726 51.0712 8.78686 50.1612C8.58624 48.776 8.49597 47.3503 8.49597 45.6112V45.409C8.49597 43.6598 8.58624 42.2341 8.77683 40.9197L8.78686 40.8287C8.90723 39.949 8.90723 39.949 7.40261 39.0693L2.67812 36.3191L3.38027 34.8833L2.58784 36.2686L2.15651 35.9956L2.85867 34.5598L2.01608 35.9147C0.100206 34.8024 -0.561825 32.3151 0.54156 30.3738L9.26833 15.1262C9.98052 13.8724 11.3246 13.0939 12.759 13.0939C13.4612 13.0939 14.1533 13.286 14.7652 13.6399L20.894 17.2091C21.3053 17.4316 21.9974 17.3203 22.519 16.9159C24.5753 15.3082 26.8122 13.9533 29.1493 12.8917L29.2998 12.8209C30.5035 12.285 31.2458 11.7289 31.2458 11.3649V4.05456C31.2458 1.82 33.0513 0 35.2681 0H52.7317C54.9485 0 56.754 1.82 56.754 4.05456V11.375C56.754 11.739 57.4963 12.2951 58.7 12.831L58.8705 12.9119C61.1977 13.9634 63.4245 15.3183 65.4808 16.926C66.0024 17.3304 66.6945 17.4417 67.1058 17.2192L73.2045 13.6702C75.2307 12.5074 77.6682 13.286 78.7315 15.1363L87.4582 30.3839C88.5616 32.3252 87.9096 34.8024 85.9837 35.9248L81.9614 38.2706L81.0586 36.946L81.851 38.3312L80.6273 39.0491C79.0825 39.9591 79.0825 39.9591 79.2029 40.859L79.223 40.9803C79.4136 42.3049 79.4938 43.7103 79.4938 45.4191V45.5202V45.6213C79.4938 47.3604 79.4035 48.776 79.2129 50.0803V50.1006C79.0725 51.0813 79.0725 51.0813 80.5771 51.961L81.851 52.6991L81.1589 54.145L81.9513 52.7598L85.3016 54.7112L84.5995 56.147L85.3919 54.7618L86.0038 55.1157C86.9065 55.6414 87.5786 56.5211 87.8595 57.5626C88.1403 58.604 87.9999 59.696 87.4582 60.6363L78.7214 75.8738C78.0092 77.1276 76.6651 77.9061 75.2307 77.9061C74.5286 77.9061 73.8364 77.714 73.2246 77.3601L67.1258 73.8111C66.6845 73.5583 66.0024 73.6797 65.4808 74.0942C63.4345 75.6918 61.2177 77.0467 58.9006 78.0881L58.6699 78.1892C57.4963 78.715 56.744 79.2711 56.744 79.6351V86.9556C56.754 89.18 54.9485 91 52.7317 91ZM30.5837 75.2469C32.2288 75.985 34.4255 77.2287 34.4255 79.625V86.9454C34.4255 87.4207 34.8067 87.8049 35.2781 87.8049H52.7417C53.2132 87.8049 53.5943 87.4207 53.5943 86.9454V79.625C53.5943 77.2287 55.7911 75.9749 57.4361 75.2469L57.5665 75.1862C59.673 74.2358 61.6892 73.0123 63.5449 71.5563C65.0695 70.3632 67.2061 70.1509 68.7107 71.0204L71.2184 72.4866L70.5363 73.9426L71.3287 72.5573L72.703 73.3561L72.061 74.8222L72.8534 73.437L74.7994 74.5695C74.9699 74.6604 75.1003 74.6908 75.2407 74.6908C75.5417 74.6908 75.8326 74.529 75.983 74.256L84.7098 59.0186C84.8201 58.8163 84.8502 58.5939 84.79 58.3714C84.7299 58.149 84.5894 57.967 84.3988 57.8558L79.0424 54.7416C76.6551 53.3462 75.7222 52.3553 76.0532 49.7871L76.0733 49.6658C76.2438 48.4727 76.3241 47.1886 76.3241 45.6011V45.5V45.3989C76.3241 43.8114 76.2438 42.5374 76.0733 41.3848L76.0532 41.2331C75.7022 38.6649 76.635 37.6639 78.9923 36.2888L80.5771 35.3687L81.4699 36.6932L80.6774 35.308L83.7268 33.5284L84.6095 34.8631L83.8171 33.4779L84.3387 33.1746C84.8001 32.9016 84.9405 32.3859 84.7098 31.9713L75.983 16.7238C75.7523 16.3294 75.2307 16.1778 74.8195 16.4103L71.3287 18.4427L70.4862 17.0878L71.2385 18.4932L68.6305 20.0099C67.0055 20.8794 65.0194 20.5963 63.5348 19.4336C61.6791 17.9776 59.6629 16.7541 57.5565 15.8037L57.4762 15.7632C55.771 15.0049 53.5843 13.7511 53.5843 11.3649V4.05456C53.5843 3.57933 53.2031 3.19511 52.7317 3.19511H35.2681C34.7967 3.19511 34.4155 3.57933 34.4155 4.05456V11.375C34.4155 13.7713 32.2288 15.0251 30.5737 15.7531L29.8214 14.3376L30.4734 15.7936C28.3268 16.7642 26.3106 17.9877 24.4549 19.4336C22.9303 20.6267 20.7937 20.839 19.2891 19.9694L16.7714 18.5033L17.4534 17.0473L16.671 18.4326L13.2506 16.4407C13.0499 16.3294 12.9095 16.289 12.759 16.289C12.4581 16.289 12.1773 16.4508 12.0168 16.7137L3.28999 31.9612C3.17965 32.1634 3.14956 32.3859 3.20975 32.6083C3.26993 32.8308 3.41036 33.0128 3.60095 33.124L8.95738 36.2382C11.3748 37.6538 12.2976 38.6548 11.9365 41.2736L11.9265 41.3747C11.756 42.5172 11.6757 43.8013 11.6757 45.3787V45.5C11.6757 47.1683 11.756 48.4423 11.9265 49.595L11.9365 49.7062C12.2976 52.3048 11.3648 53.3058 9.00753 54.691L3.66113 57.8052C3.41036 57.9569 3.26993 58.1389 3.20975 58.3613C3.14956 58.5838 3.17965 58.8163 3.28999 59.0084L12.0168 74.256C12.2475 74.6604 12.7791 74.802 13.1803 74.5695L16.671 72.5371L17.5136 73.892L16.7814 72.4764L19.3693 70.9699C19.921 70.6463 20.6533 70.4542 21.4156 70.4542C22.4889 70.4542 23.5722 70.8384 24.465 71.5361C26.3106 72.982 28.3168 74.2054 30.4132 75.1458L30.5035 75.1862L30.3731 75.4592L29.9418 76.6827L30.5837 75.2469Z"/>
</mask>
<path d="M52.7317 91H35.2681C33.0513 91 31.2458 89.18 31.2458 86.9454V79.625C31.2458 79.261 30.5035 78.7049 29.2998 78.169L29.1092 78.078C26.8222 77.0467 24.5853 75.6918 22.529 74.074C22.0074 73.6594 21.2952 73.5482 20.894 73.7909L14.8555 77.2994C12.759 78.5229 10.3517 77.7241 9.27837 75.8637L0.551591 60.6161C0.00992873 59.6758 -0.130502 58.5838 0.15036 57.5423C0.431221 56.4908 1.09325 55.6212 2.02611 55.0752L2.96901 56.3796L2.16655 54.9943L2.57781 54.7517L3.49061 56.0661L2.68815 54.7011L7.46279 51.9206C8.91726 51.0712 8.91726 51.0712 8.78686 50.1612C8.58624 48.776 8.49597 47.3503 8.49597 45.6112V45.409C8.49597 43.6598 8.58624 42.2341 8.77683 40.9197L8.78686 40.8287C8.90723 39.949 8.90723 39.949 7.40261 39.0693L2.67812 36.3191L3.38027 34.8833L2.58784 36.2686L2.15651 35.9956L2.85867 34.5598L2.01608 35.9147C0.100206 34.8024 -0.561825 32.3151 0.54156 30.3738L9.26833 15.1262C9.98052 13.8724 11.3246 13.0939 12.759 13.0939C13.4612 13.0939 14.1533 13.286 14.7652 13.6399L20.894 17.2091C21.3053 17.4316 21.9974 17.3203 22.519 16.9159C24.5753 15.3082 26.8122 13.9533 29.1493 12.8917L29.2998 12.8209C30.5035 12.285 31.2458 11.7289 31.2458 11.3649V4.05456C31.2458 1.82 33.0513 0 35.2681 0H52.7317C54.9485 0 56.754 1.82 56.754 4.05456V11.375C56.754 11.739 57.4963 12.2951 58.7 12.831L58.8705 12.9119C61.1977 13.9634 63.4245 15.3183 65.4808 16.926C66.0024 17.3304 66.6945 17.4417 67.1058 17.2192L73.2045 13.6702C75.2307 12.5074 77.6682 13.286 78.7315 15.1363L87.4582 30.3839C88.5616 32.3252 87.9096 34.8024 85.9837 35.9248L81.9614 38.2706L81.0586 36.946L81.851 38.3312L80.6273 39.0491C79.0825 39.9591 79.0825 39.9591 79.2029 40.859L79.223 40.9803C79.4136 42.3049 79.4938 43.7103 79.4938 45.4191V45.5202V45.6213C79.4938 47.3604 79.4035 48.776 79.2129 50.0803V50.1006C79.0725 51.0813 79.0725 51.0813 80.5771 51.961L81.851 52.6991L81.1589 54.145L81.9513 52.7598L85.3016 54.7112L84.5995 56.147L85.3919 54.7618L86.0038 55.1157C86.9065 55.6414 87.5786 56.5211 87.8595 57.5626C88.1403 58.604 87.9999 59.696 87.4582 60.6363L78.7214 75.8738C78.0092 77.1276 76.6651 77.9061 75.2307 77.9061C74.5286 77.9061 73.8364 77.714 73.2246 77.3601L67.1258 73.8111C66.6845 73.5583 66.0024 73.6797 65.4808 74.0942C63.4345 75.6918 61.2177 77.0467 58.9006 78.0881L58.6699 78.1892C57.4963 78.715 56.744 79.2711 56.744 79.6351V86.9556C56.754 89.18 54.9485 91 52.7317 91ZM30.5837 75.2469C32.2288 75.985 34.4255 77.2287 34.4255 79.625V86.9454C34.4255 87.4207 34.8067 87.8049 35.2781 87.8049H52.7417C53.2132 87.8049 53.5943 87.4207 53.5943 86.9454V79.625C53.5943 77.2287 55.7911 75.9749 57.4361 75.2469L57.5665 75.1862C59.673 74.2358 61.6892 73.0123 63.5449 71.5563C65.0695 70.3632 67.2061 70.1509 68.7107 71.0204L71.2184 72.4866L70.5363 73.9426L71.3287 72.5573L72.703 73.3561L72.061 74.8222L72.8534 73.437L74.7994 74.5695C74.9699 74.6604 75.1003 74.6908 75.2407 74.6908C75.5417 74.6908 75.8326 74.529 75.983 74.256L84.7098 59.0186C84.8201 58.8163 84.8502 58.5939 84.79 58.3714C84.7299 58.149 84.5894 57.967 84.3988 57.8558L79.0424 54.7416C76.6551 53.3462 75.7222 52.3553 76.0532 49.7871L76.0733 49.6658C76.2438 48.4727 76.3241 47.1886 76.3241 45.6011V45.5V45.3989C76.3241 43.8114 76.2438 42.5374 76.0733 41.3848L76.0532 41.2331C75.7022 38.6649 76.635 37.6639 78.9923 36.2888L80.5771 35.3687L81.4699 36.6932L80.6774 35.308L83.7268 33.5284L84.6095 34.8631L83.8171 33.4779L84.3387 33.1746C84.8001 32.9016 84.9405 32.3859 84.7098 31.9713L75.983 16.7238C75.7523 16.3294 75.2307 16.1778 74.8195 16.4103L71.3287 18.4427L70.4862 17.0878L71.2385 18.4932L68.6305 20.0099C67.0055 20.8794 65.0194 20.5963 63.5348 19.4336C61.6791 17.9776 59.6629 16.7541 57.5565 15.8037L57.4762 15.7632C55.771 15.0049 53.5843 13.7511 53.5843 11.3649V4.05456C53.5843 3.57933 53.2031 3.19511 52.7317 3.19511H35.2681C34.7967 3.19511 34.4155 3.57933 34.4155 4.05456V11.375C34.4155 13.7713 32.2288 15.0251 30.5737 15.7531L29.8214 14.3376L30.4734 15.7936C28.3268 16.7642 26.3106 17.9877 24.4549 19.4336C22.9303 20.6267 20.7937 20.839 19.2891 19.9694L16.7714 18.5033L17.4534 17.0473L16.671 18.4326L13.2506 16.4407C13.0499 16.3294 12.9095 16.289 12.759 16.289C12.4581 16.289 12.1773 16.4508 12.0168 16.7137L3.28999 31.9612C3.17965 32.1634 3.14956 32.3859 3.20975 32.6083C3.26993 32.8308 3.41036 33.0128 3.60095 33.124L8.95738 36.2382C11.3748 37.6538 12.2976 38.6548 11.9365 41.2736L11.9265 41.3747C11.756 42.5172 11.6757 43.8013 11.6757 45.3787V45.5C11.6757 47.1683 11.756 48.4423 11.9265 49.595L11.9365 49.7062C12.2976 52.3048 11.3648 53.3058 9.00753 54.691L3.66113 57.8052C3.41036 57.9569 3.26993 58.1389 3.20975 58.3613C3.14956 58.5838 3.17965 58.8163 3.28999 59.0084L12.0168 74.256C12.2475 74.6604 12.7791 74.802 13.1803 74.5695L16.671 72.5371L17.5136 73.892L16.7814 72.4764L19.3693 70.9699C19.921 70.6463 20.6533 70.4542 21.4156 70.4542C22.4889 70.4542 23.5722 70.8384 24.465 71.5361C26.3106 72.982 28.3168 74.2054 30.4132 75.1458L30.5035 75.1862L30.3731 75.4592L29.9418 76.6827L30.5837 75.2469Z" fill="black"/>
<path d="M52.7317 91H35.2681C33.0513 91 31.2458 89.18 31.2458 86.9454V79.625C31.2458 79.261 30.5035 78.7049 29.2998 78.169L29.1092 78.078C26.8222 77.0467 24.5853 75.6918 22.529 74.074C22.0074 73.6594 21.2952 73.5482 20.894 73.7909L14.8555 77.2994C12.759 78.5229 10.3517 77.7241 9.27837 75.8637L0.551591 60.6161C0.00992873 59.6758 -0.130502 58.5838 0.15036 57.5423C0.431221 56.4908 1.09325 55.6212 2.02611 55.0752L2.96901 56.3796L2.16655 54.9943L2.57781 54.7517L3.49061 56.0661L2.68815 54.7011L7.46279 51.9206C8.91726 51.0712 8.91726 51.0712 8.78686 50.1612C8.58624 48.776 8.49597 47.3503 8.49597 45.6112V45.409C8.49597 43.6598 8.58624 42.2341 8.77683 40.9197L8.78686 40.8287C8.90723 39.949 8.90723 39.949 7.40261 39.0693L2.67812 36.3191L3.38027 34.8833L2.58784 36.2686L2.15651 35.9956L2.85867 34.5598L2.01608 35.9147C0.100206 34.8024 -0.561825 32.3151 0.54156 30.3738L9.26833 15.1262C9.98052 13.8724 11.3246 13.0939 12.759 13.0939C13.4612 13.0939 14.1533 13.286 14.7652 13.6399L20.894 17.2091C21.3053 17.4316 21.9974 17.3203 22.519 16.9159C24.5753 15.3082 26.8122 13.9533 29.1493 12.8917L29.2998 12.8209C30.5035 12.285 31.2458 11.7289 31.2458 11.3649V4.05456C31.2458 1.82 33.0513 0 35.2681 0H52.7317C54.9485 0 56.754 1.82 56.754 4.05456V11.375C56.754 11.739 57.4963 12.2951 58.7 12.831L58.8705 12.9119C61.1977 13.9634 63.4245 15.3183 65.4808 16.926C66.0024 17.3304 66.6945 17.4417 67.1058 17.2192L73.2045 13.6702C75.2307 12.5074 77.6682 13.286 78.7315 15.1363L87.4582 30.3839C88.5616 32.3252 87.9096 34.8024 85.9837 35.9248L81.9614 38.2706L81.0586 36.946L81.851 38.3312L80.6273 39.0491C79.0825 39.9591 79.0825 39.9591 79.2029 40.859L79.223 40.9803C79.4136 42.3049 79.4938 43.7103 79.4938 45.4191V45.5202V45.6213C79.4938 47.3604 79.4035 48.776 79.2129 50.0803V50.1006C79.0725 51.0813 79.0725 51.0813 80.5771 51.961L81.851 52.6991L81.1589 54.145L81.9513 52.7598L85.3016 54.7112L84.5995 56.147L85.3919 54.7618L86.0038 55.1157C86.9065 55.6414 87.5786 56.5211 87.8595 57.5626C88.1403 58.604 87.9999 59.696 87.4582 60.6363L78.7214 75.8738C78.0092 77.1276 76.6651 77.9061 75.2307 77.9061C74.5286 77.9061 73.8364 77.714 73.2246 77.3601L67.1258 73.8111C66.6845 73.5583 66.0024 73.6797 65.4808 74.0942C63.4345 75.6918 61.2177 77.0467 58.9006 78.0881L58.6699 78.1892C57.4963 78.715 56.744 79.2711 56.744 79.6351V86.9556C56.754 89.18 54.9485 91 52.7317 91ZM30.5837 75.2469C32.2288 75.985 34.4255 77.2287 34.4255 79.625V86.9454C34.4255 87.4207 34.8067 87.8049 35.2781 87.8049H52.7417C53.2132 87.8049 53.5943 87.4207 53.5943 86.9454V79.625C53.5943 77.2287 55.7911 75.9749 57.4361 75.2469L57.5665 75.1862C59.673 74.2358 61.6892 73.0123 63.5449 71.5563C65.0695 70.3632 67.2061 70.1509 68.7107 71.0204L71.2184 72.4866L70.5363 73.9426L71.3287 72.5573L72.703 73.3561L72.061 74.8222L72.8534 73.437L74.7994 74.5695C74.9699 74.6604 75.1003 74.6908 75.2407 74.6908C75.5417 74.6908 75.8326 74.529 75.983 74.256L84.7098 59.0186C84.8201 58.8163 84.8502 58.5939 84.79 58.3714C84.7299 58.149 84.5894 57.967 84.3988 57.8558L79.0424 54.7416C76.6551 53.3462 75.7222 52.3553 76.0532 49.7871L76.0733 49.6658C76.2438 48.4727 76.3241 47.1886 76.3241 45.6011V45.5V45.3989C76.3241 43.8114 76.2438 42.5374 76.0733 41.3848L76.0532 41.2331C75.7022 38.6649 76.635 37.6639 78.9923 36.2888L80.5771 35.3687L81.4699 36.6932L80.6774 35.308L83.7268 33.5284L84.6095 34.8631L83.8171 33.4779L84.3387 33.1746C84.8001 32.9016 84.9405 32.3859 84.7098 31.9713L75.983 16.7238C75.7523 16.3294 75.2307 16.1778 74.8195 16.4103L71.3287 18.4427L70.4862 17.0878L71.2385 18.4932L68.6305 20.0099C67.0055 20.8794 65.0194 20.5963 63.5348 19.4336C61.6791 17.9776 59.6629 16.7541 57.5565 15.8037L57.4762 15.7632C55.771 15.0049 53.5843 13.7511 53.5843 11.3649V4.05456C53.5843 3.57933 53.2031 3.19511 52.7317 3.19511H35.2681C34.7967 3.19511 34.4155 3.57933 34.4155 4.05456V11.375C34.4155 13.7713 32.2288 15.0251 30.5737 15.7531L29.8214 14.3376L30.4734 15.7936C28.3268 16.7642 26.3106 17.9877 24.4549 19.4336C22.9303 20.6267 20.7937 20.839 19.2891 19.9694L16.7714 18.5033L17.4534 17.0473L16.671 18.4326L13.2506 16.4407C13.0499 16.3294 12.9095 16.289 12.759 16.289C12.4581 16.289 12.1773 16.4508 12.0168 16.7137L3.28999 31.9612C3.17965 32.1634 3.14956 32.3859 3.20975 32.6083C3.26993 32.8308 3.41036 33.0128 3.60095 33.124L8.95738 36.2382C11.3748 37.6538 12.2976 38.6548 11.9365 41.2736L11.9265 41.3747C11.756 42.5172 11.6757 43.8013 11.6757 45.3787V45.5C11.6757 47.1683 11.756 48.4423 11.9265 49.595L11.9365 49.7062C12.2976 52.3048 11.3648 53.3058 9.00753 54.691L3.66113 57.8052C3.41036 57.9569 3.26993 58.1389 3.20975 58.3613C3.14956 58.5838 3.17965 58.8163 3.28999 59.0084L12.0168 74.256C12.2475 74.6604 12.7791 74.802 13.1803 74.5695L16.671 72.5371L17.5136 73.892L16.7814 72.4764L19.3693 70.9699C19.921 70.6463 20.6533 70.4542 21.4156 70.4542C22.4889 70.4542 23.5722 70.8384 24.465 71.5361C26.3106 72.982 28.3168 74.2054 30.4132 75.1458L30.5035 75.1862L30.3731 75.4592L29.9418 76.6827L30.5837 75.2469Z" stroke="black" stroke-width="0.6" mask="url(#path-1-outside-1)"/>
<path d="M15.859 45.6112C15.859 61.2439 28.4837 73.9611 43.9949 73.9611C59.5062 73.9611 72.1308 61.2338 72.1308 45.6112C72.1308 29.9685 59.5162 17.2512 43.9949 17.2512C28.4735 17.2512 15.859 29.9787 15.859 45.6112ZM19.3388 45.6011C19.3388 31.9014 30.3969 20.7464 43.9949 20.7464C57.5929 20.7464 68.651 31.9014 68.651 45.6011C68.651 59.311 57.5929 70.4559 43.9949 70.4559C30.3969 70.4559 19.3388 59.3009 19.3388 45.6011Z" fill="black" stroke="black" stroke-width="0.3"/>
<path d="M54.8823 57.3345L54.9888 57.4419L55.0953 57.3345L66.1693 46.1719L66.2741 46.0662L66.1693 45.9606L55.0953 34.7979L54.9888 34.6906L54.8823 34.7979L52.4248 37.2751L52.32 37.3808L52.4248 37.4864L60.9364 46.0662L52.4248 54.646L52.32 54.7517L52.4248 54.8573L54.8823 57.3345ZM39.078 56.5346L39.0127 56.7318H39.2204H42.7011H42.8094L42.8435 56.629L50.4067 33.8183L50.4721 33.6211H50.2643H46.7836H46.6753L46.6412 33.7239L39.078 56.5346ZM33.8879 56.4549L33.9944 56.5622L34.1009 56.4549L36.5584 53.9776L36.6632 53.872L36.5584 53.7664L28.0468 45.1866L36.5584 36.6068L36.6632 36.5011L36.5584 36.3955L34.1009 33.9183L33.9944 33.8109L33.8879 33.9183L22.8139 45.0809L22.7091 45.1866L22.8139 45.2922L33.8879 56.4549Z" fill="black" stroke="black" stroke-width="0.3"/>
</g>
<defs>
<clipPath id="clip0">
<rect width="88" height="91" fill="white"/>
</clipPath>
</defs>
</svg>
