<?xml version="1.0" encoding="utf-8"?>
<!-- Generator: Adobe Illustrator 22.1.0, SVG Export Plug-In . SVG Version: 6.00 Build 0)  -->
<svg version="1.1" id="Layer_1" xmlns="http://www.w3.org/2000/svg" xmlns:xlink="http://www.w3.org/1999/xlink" x="0px" y="0px"
	 viewBox="0 0 256 256" style="enable-background:new 0 0 256 256;" xml:space="preserve">
<style type="text/css">
	.st0{fill:#F9A7A7;}
	.st1{fill:#E0EBFC;}
	.st2{fill:#6BDDDD;}
	.st3{fill:#3762CC;}
	.st4{fill:#EAA97D;}
	.st5{fill:#A4C9FF;}
	.st6{fill:#4671C6;}
	.st7{fill:#FFEA92;}
	.st8{fill:#F9CFCF;}
	.st9{fill:#FFFFFF;}
</style>
<g>
	<g>
		<path class="st6" d="M174.918,151.275H50.815V54.17c0-2.801,2.271-5.072,5.072-5.072h113.958c2.801,0,5.072,2.271,5.072,5.072
			V151.275z"/>
	</g>
	<g>
		<path class="st5" d="M222.475,73.982l10.151,27.285l9.393,5.232c1.607,0.895,2.604,2.591,2.604,4.431v40.344h-69.705V69.577
			h41.218C218.962,69.577,221.49,71.334,222.475,73.982z"/>
	</g>
	<g>
		<path class="st1" d="M185.615,78.558h27.327c1.507,0,2.832,0.997,3.249,2.444l6.503,22.544c0.624,2.162-0.999,4.319-3.249,4.319
			h-33.83c-1.868,0-3.382-1.514-3.382-3.382V81.94C182.233,80.072,183.747,78.558,185.615,78.558z"/>
	</g>
	<g>
		<path class="st3" d="M174.918,153.275H50.815c-1.104,0-2-0.896-2-2V54.17c0-3.899,3.173-7.072,7.072-7.072h113.958
			c3.899,0,7.072,3.173,7.072,7.072v97.105C176.918,152.38,176.022,153.275,174.918,153.275z M52.815,149.275h120.103V54.17
			c0-1.694-1.378-3.072-3.072-3.072H55.888c-1.694,0-3.072,1.378-3.072,3.072V149.275z"/>
	</g>
	<g>
		<path class="st3" d="M244.623,153.275h-69.705c-1.104,0-2-0.896-2-2V69.577c0-1.104,0.896-2,2-2h41.219
			c3.644,0,6.943,2.294,8.213,5.708l9.894,26.594l8.749,4.874c2.239,1.248,3.631,3.615,3.631,6.179v40.344
			C246.623,152.38,245.728,153.275,244.623,153.275z M176.918,149.275h65.705v-38.344c0-1.113-0.604-2.143-1.578-2.685l-9.393-5.232
			c-0.415-0.231-0.735-0.604-0.9-1.05L220.601,74.68c-0.001,0-0.001,0-0.001,0c-0.689-1.855-2.483-3.103-4.463-3.103h-39.219
			V149.275z"/>
	</g>
	<g>
		<path class="st7" d="M246.893,121.392h-2.085h-0.185h-13.87c-1.868,0-3.382,1.514-3.382,3.382v9.299
			c0,1.868,1.514,3.382,3.382,3.382h13.87h0.185h2.085c1.256,0,2.274-1.018,2.274-2.274v-11.514
			C249.167,122.41,248.149,121.392,246.893,121.392z"/>
	</g>
	<g>
		<path class="st3" d="M246.893,139.454h-16.14c-2.968,0-5.382-2.414-5.382-5.382v-9.299c0-2.968,2.414-5.382,5.382-5.382h16.14
			c2.356,0,4.274,1.918,4.274,4.274v11.514C251.167,137.536,249.249,139.454,246.893,139.454z M230.753,123.392
			c-0.762,0-1.382,0.62-1.382,1.382v9.299c0,0.762,0.62,1.382,1.382,1.382h16.14c0.151,0,0.274-0.123,0.274-0.274v-11.514
			c0-0.151-0.123-0.274-0.274-0.274H230.753z"/>
	</g>
	<g>
		<path class="st2" d="M244.094,173.538H51.343c-2.801,0-5.072-2.271-5.072-5.072v-12.117c0-2.801,2.271-5.072,5.072-5.072h192.751
			c2.801,0,5.072,2.271,5.072,5.072v12.117C249.167,171.267,246.896,173.538,244.094,173.538z"/>
	</g>
	<g>
		<path class="st3" d="M244.095,175.538H51.344c-3.899,0-7.072-3.173-7.072-7.073v-12.117c0-3.899,3.173-7.072,7.072-7.072h192.751
			c3.899,0,7.072,3.173,7.072,7.072v12.117C251.167,172.365,247.994,175.538,244.095,175.538z M51.344,153.275
			c-1.694,0-3.072,1.378-3.072,3.072v12.117c0,1.694,1.378,3.073,3.072,3.073h192.751c1.694,0,3.072-1.379,3.072-3.073v-12.117
			c0-1.694-1.378-3.072-3.072-3.072H51.344z"/>
	</g>
	<g>
		<circle class="st6" cx="91.808" cy="182.273" r="24.629"/>
	</g>
	<g>
		<path class="st8" d="M91.808,195.518c-7.303,0-13.245-5.942-13.245-13.245c0-7.303,5.942-13.244,13.245-13.244
			c7.303,0,13.245,5.941,13.245,13.244C105.053,189.576,99.111,195.518,91.808,195.518z"/>
	</g>
	<g>
		<circle class="st6" cx="210.164" cy="182.273" r="24.629"/>
	</g>
	<g>
		<path class="st8" d="M210.164,195.518c-7.303,0-13.245-5.942-13.245-13.245c0-7.303,5.942-13.244,13.245-13.244
			s13.245,5.941,13.245,13.244C223.409,189.576,217.467,195.518,210.164,195.518z"/>
	</g>
	<g>
		<path class="st3" d="M219.444,109.865h-33.829c-2.968,0-5.382-2.414-5.382-5.382V81.939c0-2.967,2.414-5.381,5.382-5.381h27.326
			c2.385,0,4.512,1.6,5.171,3.891l6.504,22.543c0.473,1.641,0.155,3.363-0.871,4.728
			C222.719,109.083,221.151,109.865,219.444,109.865z M185.615,80.559c-0.762,0-1.382,0.619-1.382,1.381v22.544
			c0,0.762,0.62,1.382,1.382,1.382h33.829c0.438,0,0.841-0.201,1.104-0.551c0.264-0.351,0.345-0.793,0.224-1.214l-6.504-22.543
			c-0.169-0.589-0.715-0.999-1.327-0.999H185.615z"/>
	</g>
	<g>
		<path class="st3" d="M91.809,208.902c-14.684,0-26.63-11.945-26.63-26.629s11.946-26.629,26.63-26.629
			s26.629,11.945,26.629,26.629S106.492,208.902,91.809,208.902z M91.809,159.645c-12.479,0-22.63,10.151-22.63,22.629
			s10.151,22.629,22.63,22.629c12.478,0,22.629-10.151,22.629-22.629S104.286,159.645,91.809,159.645z"/>
	</g>
	<g>
		<path class="st3" d="M91.809,197.518c-8.406,0-15.245-6.839-15.245-15.244s6.839-15.244,15.245-15.244
			c8.405,0,15.244,6.839,15.244,15.244S100.214,197.518,91.809,197.518z M91.809,171.029c-6.2,0-11.245,5.044-11.245,11.244
			s5.045,11.244,11.245,11.244s11.244-5.044,11.244-11.244S98.009,171.029,91.809,171.029z"/>
	</g>
	<g>
		<path class="st3" d="M210.164,208.902c-14.684,0-26.629-11.945-26.629-26.629s11.945-26.629,26.629-26.629
			s26.629,11.945,26.629,26.629S224.848,208.902,210.164,208.902z M210.164,159.645c-12.478,0-22.629,10.151-22.629,22.629
			s10.151,22.629,22.629,22.629s22.629-10.151,22.629-22.629S222.642,159.645,210.164,159.645z"/>
	</g>
	<g>
		<path class="st3" d="M210.164,197.518c-8.406,0-15.245-6.839-15.245-15.244s6.839-15.244,15.245-15.244
			s15.245,6.839,15.245,15.244S218.57,197.518,210.164,197.518z M210.164,171.029c-6.2,0-11.245,5.044-11.245,11.244
			s5.045,11.244,11.245,11.244s11.245-5.044,11.245-11.244S216.364,171.029,210.164,171.029z"/>
	</g>
	<g>
		<path class="st0" d="M80.729,83.099H67.68c-0.913,0-1.693,0.144-2.319,0.429c-0.708,0.323-1.235,0.846-1.567,1.553
			c-0.298,0.635-0.443,1.402-0.443,2.345v21.028c0,1.369,0.344,2.435,1.021,3.169c0.698,0.756,1.603,1.14,2.691,1.14
			c1.073,0,1.971-0.379,2.669-1.126c0.681-0.73,1.025-1.801,1.025-3.183v-8.069h8.18c1.063,0,1.904-0.267,2.502-0.793
			c0.621-0.549,0.95-1.314,0.95-2.212c0-0.891-0.321-1.655-0.931-2.212c-0.593-0.538-1.441-0.811-2.521-0.811h-8.18v-5.12h9.97
			c1.118,0,1.992-0.28,2.597-0.831c0.62-0.566,0.948-1.344,0.948-2.247c0-0.892-0.328-1.663-0.948-2.23
			C82.721,83.379,81.847,83.099,80.729,83.099z"/>
	</g>
	<g>
		<path class="st0" d="M108.734,104.099c-0.728-1.191-1.566-2.33-2.49-3.383c-0.438-0.498-0.889-0.944-1.352-1.336
			c1.57-0.561,2.824-1.333,3.743-2.307c1.313-1.391,1.979-3.251,1.979-5.526c0-1.105-0.193-2.168-0.575-3.161
			c-0.386-1.005-0.961-1.899-1.706-2.658c-0.742-0.756-1.61-1.347-2.555-1.744c-0.793-0.361-1.689-0.604-2.663-0.721
			c-0.917-0.109-2.027-0.164-3.298-0.164h-9.004c-1.445,0-2.54,0.362-3.252,1.075c-0.714,0.714-1.076,1.808-1.076,3.252v21.028
			c0,1.328,0.319,2.379,0.949,3.123c0.669,0.787,1.599,1.187,2.764,1.187c1.086,0,1.987-0.376,2.679-1.118
			c0.674-0.723,1.015-1.796,1.015-3.191v-7.845h1.003c0.856,0,1.56,0.109,2.093,0.324c0.507,0.204,1.031,0.61,1.56,1.206
			c0.585,0.661,1.268,1.653,2.033,2.955l2.218,3.692c0.539,0.897,0.953,1.559,1.269,2.022c0.369,0.541,0.817,0.996,1.332,1.352
			c0.58,0.4,1.285,0.603,2.098,0.603c0.671,0,1.279-0.139,1.808-0.412c0.543-0.279,0.979-0.67,1.296-1.159
			c0.329-0.506,0.497-1.039,0.497-1.582c0-0.332-0.075-0.89-0.661-2.276C110.031,106.373,109.458,105.284,108.734,104.099z
			 M93.893,89.127h4.172c2.315,0,3.16,0.211,3.46,0.338c0.515,0.216,0.903,0.526,1.186,0.951c0.284,0.425,0.421,0.911,0.421,1.485
			c0,0.734-0.165,1.296-0.489,1.672c-0.349,0.403-0.888,0.699-1.601,0.88c-0.829,0.21-1.881,0.316-3.126,0.316h-4.023V89.127z"/>
	</g>
	<g>
		<path class="st0" d="M133.353,106.027h-11.964v-5.902h10.548c1.101,0,1.958-0.284,2.548-0.847
			c0.592-0.565,0.904-1.325,0.904-2.195c0-0.879-0.321-1.637-0.931-2.193c-0.593-0.538-1.441-0.811-2.521-0.811h-10.548v-4.84
			h11.535c1.119,0,1.993-0.28,2.598-0.831c0.62-0.567,0.947-1.344,0.947-2.247c0-0.892-0.328-1.662-0.948-2.23
			c-0.605-0.551-1.479-0.83-2.597-0.83H118.31c-0.913,0-1.693,0.144-2.319,0.429c-0.709,0.324-1.236,0.847-1.567,1.553
			c-0.298,0.635-0.443,1.402-0.443,2.345v20.543c0,1.443,0.358,2.537,1.062,3.25c0.708,0.716,1.807,1.079,3.266,1.079h15.043
			c1.107,0,1.981-0.286,2.598-0.851c0.632-0.577,0.966-1.361,0.966-2.265c0-0.928-0.334-1.725-0.966-2.302
			C135.333,106.314,134.46,106.027,133.353,106.027z"/>
	</g>
	<g>
		<path class="st0" d="M161.415,106.88c-0.618-0.566-1.492-0.852-2.598-0.852h-11.964v-5.902H157.4c1.101,0,1.958-0.284,2.548-0.847
			c0.592-0.565,0.904-1.325,0.904-2.195c0-0.879-0.321-1.637-0.931-2.193c-0.593-0.538-1.441-0.811-2.521-0.811h-10.548v-4.84
			h11.535c1.119,0,1.993-0.28,2.598-0.831c0.62-0.567,0.947-1.344,0.947-2.247c0-0.892-0.328-1.662-0.948-2.23
			c-0.605-0.551-1.479-0.83-2.597-0.83h-14.614c-0.913,0-1.693,0.144-2.319,0.429c-0.709,0.324-1.236,0.847-1.567,1.553
			c-0.298,0.635-0.443,1.402-0.443,2.345v20.543c0,1.443,0.358,2.537,1.062,3.25c0.708,0.716,1.807,1.079,3.266,1.079h15.043
			c1.107,0,1.981-0.286,2.598-0.851c0.632-0.577,0.966-1.361,0.966-2.265C162.381,108.254,162.047,107.457,161.415,106.88z"/>
	</g>
	<g>
		<path class="st8" d="M60.907,147.577H20.528c-3.145,0-5.694-2.549-5.694-5.694v0c0-3.145,2.549-5.694,5.694-5.694h40.379
			c3.145,0,5.694,2.549,5.694,5.694v0C66.601,145.028,64.052,147.577,60.907,147.577z"/>
	</g>
	<g>
		<path class="st8" d="M70.907,126.658H30.528c-3.145,0-5.694-2.549-5.694-5.694v0c0-3.145,2.549-5.694,5.694-5.694h40.379
			c3.145,0,5.694,2.549,5.694,5.694v0C76.601,124.108,74.052,126.658,70.907,126.658z"/>
	</g>
	<g>
		<path class="st8" d="M52.907,165.577H12.528c-3.145,0-5.694-2.549-5.694-5.694v0c0-3.145,2.549-5.694,5.694-5.694h40.379
			c3.145,0,5.694,2.549,5.694,5.694v0C58.601,163.028,56.052,165.577,52.907,165.577z"/>
	</g>
</g>
</svg>
