<svg enable-background="new 0 0 256 256" viewBox="0 0 256 256" xmlns="http://www.w3.org/2000/svg"><path d="m174.918 151.275h-124.103v-97.105c0-2.801 2.271-5.072 5.072-5.072h113.958c2.801 0 5.072 2.271 5.072 5.072v97.105z" fill="#4671c6"/><path d="m222.475 73.982 10.151 27.285 9.393 5.232c1.607.895 2.604 2.591 2.604 4.431v40.344h-69.705v-81.697h41.218c2.826 0 5.354 1.757 6.339 4.405z" fill="#a4c9ff"/><path d="m185.615 78.558h27.327c1.507 0 2.832.997 3.249 2.444l6.503 22.544c.624 2.162-.999 4.319-3.249 4.319h-33.83c-1.868 0-3.382-1.514-3.382-3.382v-22.543c0-1.868 1.514-3.382 3.382-3.382z" fill="#e0ebfc"/><path d="m174.918 153.275h-124.103c-1.104 0-2-.896-2-2v-97.105c0-3.899 3.173-7.072 7.072-7.072h113.958c3.899 0 7.072 3.173 7.072 7.072v97.105c.001 1.105-.895 2-1.999 2zm-122.103-4h120.103v-95.105c0-1.694-1.378-3.072-3.072-3.072h-113.958c-1.694 0-3.072 1.378-3.072 3.072v95.105z" fill="#3762cc"/><path d="m244.623 153.275h-69.705c-1.104 0-2-.896-2-2v-81.698c0-1.104.896-2 2-2h41.219c3.644 0 6.943 2.294 8.213 5.708l9.894 26.594 8.749 4.874c2.239 1.248 3.631 3.615 3.631 6.179v40.344c-.001 1.104-.896 1.999-2.001 1.999zm-67.705-4h65.705v-38.344c0-1.113-.604-2.143-1.578-2.685l-9.393-5.232c-.415-.231-.735-.604-.9-1.05l-10.151-27.284c-.001 0-.001 0-.001 0-.689-1.855-2.483-3.103-4.463-3.103h-39.219z" fill="#3762cc"/><path d="m246.893 121.392h-2.085-.185-13.87c-1.868 0-3.382 1.514-3.382 3.382v9.299c0 1.868 1.514 3.382 3.382 3.382h13.87.185 2.085c1.256 0 2.274-1.018 2.274-2.274v-11.514c0-1.257-1.018-2.275-2.274-2.275z" fill="#ffea92"/><path d="m246.893 139.454h-16.14c-2.968 0-5.382-2.414-5.382-5.382v-9.299c0-2.968 2.414-5.382 5.382-5.382h16.14c2.356 0 4.274 1.918 4.274 4.274v11.514c0 2.357-1.918 4.275-4.274 4.275zm-16.14-16.062c-.762 0-1.382.62-1.382 1.382v9.299c0 .762.62 1.382 1.382 1.382h16.14c.151 0 .274-.123.274-.274v-11.514c0-.151-.123-.274-.274-.274h-16.14z" fill="#3762cc"/><path d="m244.094 173.538h-192.751c-2.801 0-5.072-2.271-5.072-5.072v-12.117c0-2.801 2.271-5.072 5.072-5.072h192.751c2.801 0 5.072 2.271 5.072 5.072v12.117c.001 2.801-2.27 5.072-5.072 5.072z" fill="#6bdddd"/><path d="m244.095 175.538h-192.751c-3.899 0-7.072-3.173-7.072-7.073v-12.117c0-3.899 3.173-7.072 7.072-7.072h192.751c3.899 0 7.072 3.173 7.072 7.072v12.117c0 3.9-3.173 7.073-7.072 7.073zm-192.751-22.263c-1.694 0-3.072 1.378-3.072 3.072v12.117c0 1.694 1.378 3.073 3.072 3.073h192.751c1.694 0 3.072-1.379 3.072-3.073v-12.117c0-1.694-1.378-3.072-3.072-3.072z" fill="#3762cc"/><circle cx="91.808" cy="182.273" fill="#4671c6" r="24.629"/><path d="m91.808 195.518c-7.303 0-13.245-5.942-13.245-13.245s5.942-13.244 13.245-13.244 13.245 5.941 13.245 13.244-5.942 13.245-13.245 13.245z" fill="#f9cfcf"/><circle cx="210.164" cy="182.273" fill="#4671c6" r="24.629"/><path d="m210.164 195.518c-7.303 0-13.245-5.942-13.245-13.245s5.942-13.244 13.245-13.244 13.245 5.941 13.245 13.244-5.942 13.245-13.245 13.245z" fill="#f9cfcf"/><g fill="#3762cc"><path d="m219.444 109.865h-33.829c-2.968 0-5.382-2.414-5.382-5.382v-22.544c0-2.967 2.414-5.381 5.382-5.381h27.326c2.385 0 4.512 1.6 5.171 3.891l6.504 22.543c.473 1.641.155 3.363-.871 4.728-1.026 1.363-2.594 2.145-4.301 2.145zm-33.829-29.306c-.762 0-1.382.619-1.382 1.381v22.544c0 .762.62 1.382 1.382 1.382h33.829c.438 0 .841-.201 1.104-.551.264-.351.345-.793.224-1.214l-6.504-22.543c-.169-.589-.715-.999-1.327-.999z"/><path d="m91.809 208.902c-14.684 0-26.63-11.945-26.63-26.629s11.946-26.629 26.63-26.629 26.629 11.945 26.629 26.629-11.946 26.629-26.629 26.629zm0-49.257c-12.479 0-22.63 10.151-22.63 22.629s10.151 22.629 22.63 22.629c12.478 0 22.629-10.151 22.629-22.629s-10.152-22.629-22.629-22.629z"/><path d="m91.809 197.518c-8.406 0-15.245-6.839-15.245-15.244s6.839-15.244 15.245-15.244c8.405 0 15.244 6.839 15.244 15.244s-6.839 15.244-15.244 15.244zm0-26.489c-6.2 0-11.245 5.044-11.245 11.244s5.045 11.244 11.245 11.244 11.244-5.044 11.244-11.244-5.044-11.244-11.244-11.244z"/><path d="m210.164 208.902c-14.684 0-26.629-11.945-26.629-26.629s11.945-26.629 26.629-26.629 26.629 11.945 26.629 26.629-11.945 26.629-26.629 26.629zm0-49.257c-12.478 0-22.629 10.151-22.629 22.629s10.151 22.629 22.629 22.629 22.629-10.151 22.629-22.629-10.151-22.629-22.629-22.629z"/><path d="m210.164 197.518c-8.406 0-15.245-6.839-15.245-15.244s6.839-15.244 15.245-15.244 15.245 6.839 15.245 15.244-6.839 15.244-15.245 15.244zm0-26.489c-6.2 0-11.245 5.044-11.245 11.244s5.045 11.244 11.245 11.244 11.245-5.044 11.245-11.244-5.045-11.244-11.245-11.244z"/></g><path d="m80.729 83.099h-13.049c-.913 0-1.693.144-2.319.429-.708.323-1.235.846-1.567 1.553-.298.635-.443 1.402-.443 2.345v21.028c0 1.369.344 2.435 1.021 3.169.698.756 1.603 1.14 2.691 1.14 1.073 0 1.971-.379 2.669-1.126.681-.73 1.025-1.801 1.025-3.183v-8.069h8.18c1.063 0 1.904-.267 2.502-.793.621-.549.95-1.314.95-2.212 0-.891-.321-1.655-.931-2.212-.593-.538-1.441-.811-2.521-.811h-8.18v-5.12h9.97c1.118 0 1.992-.28 2.597-.831.62-.566.948-1.344.948-2.247 0-.892-.328-1.663-.948-2.23-.603-.55-1.477-.83-2.595-.83z" fill="#f9a7a7"/><path d="m108.734 104.099c-.728-1.191-1.566-2.33-2.49-3.383-.438-.498-.889-.944-1.352-1.336 1.57-.561 2.824-1.333 3.743-2.307 1.313-1.391 1.979-3.251 1.979-5.526 0-1.105-.193-2.168-.575-3.161-.386-1.005-.961-1.899-1.706-2.658-.742-.756-1.61-1.347-2.555-1.744-.793-.361-1.689-.604-2.663-.721-.917-.109-2.027-.164-3.298-.164h-9.004c-1.445 0-2.54.362-3.252 1.075-.714.714-1.076 1.808-1.076 3.252v21.028c0 1.328.319 2.379.949 3.123.669.787 1.599 1.187 2.764 1.187 1.086 0 1.987-.376 2.679-1.118.674-.723 1.015-1.796 1.015-3.191v-7.845h1.003c.856 0 1.56.109 2.093.324.507.204 1.031.61 1.56 1.206.585.661 1.268 1.653 2.033 2.955l2.218 3.692c.539.897.953 1.559 1.269 2.022.369.541.817.996 1.332 1.352.58.4 1.285.603 2.098.603.671 0 1.279-.139 1.808-.412.543-.279.979-.67 1.296-1.159.329-.506.497-1.039.497-1.582 0-.332-.075-.89-.661-2.276-.407-.962-.98-2.051-1.704-3.236zm-14.841-14.972h4.172c2.315 0 3.16.211 3.46.338.515.216.903.526 1.186.951.284.425.421.911.421 1.485 0 .734-.165 1.296-.489 1.672-.349.403-.888.699-1.601.88-.829.21-1.881.316-3.126.316h-4.023z" fill="#f9a7a7"/><path d="m133.353 106.027h-11.964v-5.902h10.548c1.101 0 1.958-.284 2.548-.847.592-.565.904-1.325.904-2.195 0-.879-.321-1.637-.931-2.193-.593-.538-1.441-.811-2.521-.811h-10.548v-4.84h11.535c1.119 0 1.993-.28 2.598-.831.62-.567.947-1.344.947-2.247 0-.892-.328-1.662-.948-2.23-.605-.551-1.479-.83-2.597-.83h-14.614c-.913 0-1.693.144-2.319.429-.709.324-1.236.847-1.567 1.553-.298.635-.443 1.402-.443 2.345v20.543c0 1.443.358 2.537 1.062 3.25.708.716 1.807 1.079 3.266 1.079h15.043c1.107 0 1.981-.286 2.598-.851.632-.577.966-1.361.966-2.265 0-.928-.334-1.725-.966-2.302-.617-.568-1.49-.855-2.597-.855z" fill="#f9a7a7"/><path d="m161.415 106.88c-.618-.566-1.492-.852-2.598-.852h-11.964v-5.902h10.547c1.101 0 1.958-.284 2.548-.847.592-.565.904-1.325.904-2.195 0-.879-.321-1.637-.931-2.193-.593-.538-1.441-.811-2.521-.811h-10.548v-4.84h11.535c1.119 0 1.993-.28 2.598-.831.62-.567.947-1.344.947-2.247 0-.892-.328-1.662-.948-2.23-.605-.551-1.479-.83-2.597-.83h-14.614c-.913 0-1.693.144-2.319.429-.709.324-1.236.847-1.567 1.553-.298.635-.443 1.402-.443 2.345v20.543c0 1.443.358 2.537 1.062 3.25.708.716 1.807 1.079 3.266 1.079h15.043c1.107 0 1.981-.286 2.598-.851.632-.577.966-1.361.966-2.265.002-.931-.332-1.728-.964-2.305z" fill="#f9a7a7"/><path d="m60.907 147.577h-40.379c-3.145 0-5.694-2.549-5.694-5.694 0-3.145 2.549-5.694 5.694-5.694h40.379c3.145 0 5.694 2.549 5.694 5.694 0 3.145-2.549 5.694-5.694 5.694z" fill="#f9cfcf"/><path d="m70.907 126.658h-40.379c-3.145 0-5.694-2.549-5.694-5.694 0-3.145 2.549-5.694 5.694-5.694h40.379c3.145 0 5.694 2.549 5.694 5.694 0 3.144-2.549 5.694-5.694 5.694z" fill="#f9cfcf"/><path d="m52.907 165.577h-40.379c-3.145 0-5.694-2.549-5.694-5.694 0-3.145 2.549-5.694 5.694-5.694h40.379c3.145 0 5.694 2.549 5.694 5.694 0 3.145-2.549 5.694-5.694 5.694z" fill="#f9cfcf"/></svg>